<svg width="90" height="80" viewBox="0 0 90 80" fill="none" xmlns="http://www.w3.org/2000/svg">
<g opacity="0.5">
<path d="M0 0H1.47541V1.47239H0V0Z" fill="#ED8A0A"/>
<path d="M9.83607 0H11.3115V1.47239H9.83607V0Z" fill="#ED8A0A"/>
<path d="M19.6721 0H21.1475V1.47239H19.6721V0Z" fill="#ED8A0A"/>
<path d="M29.5082 0H30.9836V1.47239H29.5082V0Z" fill="#ED8A0A"/>
<path d="M39.3443 0H40.8197V1.47239H39.3443V0Z" fill="#ED8A0A"/>
<path d="M49.1803 0H50.6557V1.47239H49.1803V0Z" fill="#ED8A0A"/>
<path d="M59.0164 0H60.4918V1.47239H59.0164V0Z" fill="#ED8A0A"/>
<path d="M68.8525 0H70.3279V1.47239H68.8525V0Z" fill="#ED8A0A"/>
<path d="M78.6885 0H80.1639V1.47239H78.6885V0Z" fill="#ED8A0A"/>
<path d="M88.5246 0H90V1.47239H88.5246V0Z" fill="#ED8A0A"/>
<path d="M0 9.81595H1.47541V11.2883H0V9.81595Z" fill="#ED8A0A"/>
<path d="M9.83607 9.81597H11.3115V11.2884H9.83607V9.81597Z" fill="#ED8A0A"/>
<path d="M19.6721 9.81597H21.1475V11.2884H19.6721V9.81597Z" fill="#ED8A0A"/>
<path d="M29.5082 9.81597H30.9836V11.2884H29.5082V9.81597Z" fill="#ED8A0A"/>
<path d="M39.3443 9.81597H40.8197V11.2884H39.3443V9.81597Z" fill="#ED8A0A"/>
<path d="M49.1803 9.81597H50.6557V11.2884H49.1803V9.81597Z" fill="#ED8A0A"/>
<path d="M59.0164 9.81597H60.4918V11.2884H59.0164V9.81597Z" fill="#ED8A0A"/>
<path d="M68.8525 9.81597H70.3279V11.2884H68.8525V9.81597Z" fill="#ED8A0A"/>
<path d="M78.6885 9.81597H80.1639V11.2884H78.6885V9.81597Z" fill="#ED8A0A"/>
<path d="M88.5246 9.81597H90V11.2884H88.5246V9.81597Z" fill="#ED8A0A"/>
<path d="M0 19.6319H1.47541V21.1043H0V19.6319Z" fill="#ED8A0A"/>
<path d="M9.83607 19.6319H11.3115V21.1043H9.83607V19.6319Z" fill="#ED8A0A"/>
<path d="M19.6721 19.6319H21.1475V21.1043H19.6721V19.6319Z" fill="#ED8A0A"/>
<path d="M29.5082 19.6319H30.9836V21.1043H29.5082V19.6319Z" fill="#ED8A0A"/>
<path d="M39.3443 19.6319H40.8197V21.1043H39.3443V19.6319Z" fill="#ED8A0A"/>
<path d="M49.1803 19.6319H50.6557V21.1043H49.1803V19.6319Z" fill="#ED8A0A"/>
<path d="M59.0164 19.6319H60.4918V21.1043H59.0164V19.6319Z" fill="#ED8A0A"/>
<path d="M68.8525 19.6319H70.3279V21.1043H68.8525V19.6319Z" fill="#ED8A0A"/>
<path d="M78.6885 19.6319H80.1639V21.1043H78.6885V19.6319Z" fill="#ED8A0A"/>
<path d="M88.5246 19.6319H90V21.1043H88.5246V19.6319Z" fill="#ED8A0A"/>
<path d="M0 29.4478H1.47541V30.9202H0V29.4478Z" fill="#ED8A0A"/>
<path d="M9.83607 29.4478H11.3115V30.9202H9.83607V29.4478Z" fill="#ED8A0A"/>
<path d="M19.6721 29.4478H21.1475V30.9202H19.6721V29.4478Z" fill="#ED8A0A"/>
<path d="M29.5082 29.4478H30.9836V30.9202H29.5082V29.4478Z" fill="#ED8A0A"/>
<path d="M39.3443 29.4478H40.8197V30.9202H39.3443V29.4478Z" fill="#ED8A0A"/>
<path d="M49.1803 29.4478H50.6557V30.9202H49.1803V29.4478Z" fill="#ED8A0A"/>
<path d="M59.0164 29.4478H60.4918V30.9202H59.0164V29.4478Z" fill="#ED8A0A"/>
<path d="M68.8525 29.4478H70.3279V30.9202H68.8525V29.4478Z" fill="#ED8A0A"/>
<path d="M78.6885 29.4478H80.1639V30.9202H78.6885V29.4478Z" fill="#ED8A0A"/>
<path d="M88.5246 29.4478H90V30.9202H88.5246V29.4478Z" fill="#ED8A0A"/>
<path d="M0 39.2638H1.47541V40.7362H0V39.2638Z" fill="#ED8A0A"/>
<path d="M9.83607 39.2637H11.3115V40.7361H9.83607V39.2637Z" fill="#ED8A0A"/>
<path d="M19.6721 39.2637H21.1475V40.7361H19.6721V39.2637Z" fill="#ED8A0A"/>
<path d="M29.5082 39.2637H30.9836V40.7361H29.5082V39.2637Z" fill="#ED8A0A"/>
<path d="M39.3443 39.2637H40.8197V40.7361H39.3443V39.2637Z" fill="#ED8A0A"/>
<path d="M49.1803 39.2637H50.6557V40.7361H49.1803V39.2637Z" fill="#ED8A0A"/>
<path d="M59.0164 39.2637H60.4918V40.7361H59.0164V39.2637Z" fill="#ED8A0A"/>
<path d="M68.8525 39.2637H70.3279V40.7361H68.8525V39.2637Z" fill="#ED8A0A"/>
<path d="M78.6885 39.2637H80.1639V40.7361H78.6885V39.2637Z" fill="#ED8A0A"/>
<path d="M88.5246 39.2637H90V40.7361H88.5246V39.2637Z" fill="#ED8A0A"/>
<path d="M0 49.0798H1.47541V50.5521H0V49.0798Z" fill="#ED8A0A"/>
<path d="M9.83607 49.0798H11.3115V50.5522H9.83607V49.0798Z" fill="#ED8A0A"/>
<path d="M19.6721 49.0798H21.1475V50.5522H19.6721V49.0798Z" fill="#ED8A0A"/>
<path d="M29.5082 49.0798H30.9836V50.5522H29.5082V49.0798Z" fill="#ED8A0A"/>
<path d="M39.3443 49.0798H40.8197V50.5522H39.3443V49.0798Z" fill="#ED8A0A"/>
<path d="M49.1803 49.0798H50.6557V50.5522H49.1803V49.0798Z" fill="#ED8A0A"/>
<path d="M59.0164 49.0798H60.4918V50.5522H59.0164V49.0798Z" fill="#ED8A0A"/>
<path d="M68.8525 49.0798H70.3279V50.5522H68.8525V49.0798Z" fill="#ED8A0A"/>
<path d="M78.6885 49.0798H80.1639V50.5522H78.6885V49.0798Z" fill="#ED8A0A"/>
<path d="M88.5246 49.0798H90V50.5522H88.5246V49.0798Z" fill="#ED8A0A"/>
<path d="M0 58.8957H1.47541V60.3681H0V58.8957Z" fill="#ED8A0A"/>
<path d="M9.83607 58.8957H11.3115V60.3681H9.83607V58.8957Z" fill="#ED8A0A"/>
<path d="M19.6721 58.8957H21.1475V60.3681H19.6721V58.8957Z" fill="#ED8A0A"/>
<path d="M29.5082 58.8957H30.9836V60.3681H29.5082V58.8957Z" fill="#ED8A0A"/>
<path d="M39.3443 58.8957H40.8197V60.3681H39.3443V58.8957Z" fill="#ED8A0A"/>
<path d="M49.1803 58.8957H50.6557V60.3681H49.1803V58.8957Z" fill="#ED8A0A"/>
<path d="M59.0164 58.8957H60.4918V60.3681H59.0164V58.8957Z" fill="#ED8A0A"/>
<path d="M68.8525 58.8957H70.3279V60.3681H68.8525V58.8957Z" fill="#ED8A0A"/>
<path d="M78.6885 58.8957H80.1639V60.3681H78.6885V58.8957Z" fill="#ED8A0A"/>
<path d="M88.5246 58.8957H90V60.3681H88.5246V58.8957Z" fill="#ED8A0A"/>
<path d="M0 68.7116H1.47541V70.184H0V68.7116Z" fill="#ED8A0A"/>
<path d="M9.83607 68.7117H11.3115V70.1841H9.83607V68.7117Z" fill="#ED8A0A"/>
<path d="M19.6721 68.7117H21.1475V70.1841H19.6721V68.7117Z" fill="#ED8A0A"/>
<path d="M29.5082 68.7117H30.9836V70.1841H29.5082V68.7117Z" fill="#ED8A0A"/>
<path d="M39.3443 68.7117H40.8197V70.1841H39.3443V68.7117Z" fill="#ED8A0A"/>
<path d="M49.1803 68.7117H50.6557V70.1841H49.1803V68.7117Z" fill="#ED8A0A"/>
<path d="M59.0164 68.7117H60.4918V70.1841H59.0164V68.7117Z" fill="#ED8A0A"/>
<path d="M68.8525 68.7117H70.3279V70.1841H68.8525V68.7117Z" fill="#ED8A0A"/>
<path d="M78.6885 68.7117H80.1639V70.1841H78.6885V68.7117Z" fill="#ED8A0A"/>
<path d="M88.5246 68.7117H90V70.1841H88.5246V68.7117Z" fill="#ED8A0A"/>
<path d="M0 78.5276H1.47541V80H0V78.5276Z" fill="#ED8A0A"/>
<path d="M9.83607 78.5276H11.3115V80H9.83607V78.5276Z" fill="#ED8A0A"/>
<path d="M19.6721 78.5276H21.1475V80H19.6721V78.5276Z" fill="#ED8A0A"/>
<path d="M29.5082 78.5276H30.9836V80H29.5082V78.5276Z" fill="#ED8A0A"/>
<path d="M39.3443 78.5276H40.8197V80H39.3443V78.5276Z" fill="#ED8A0A"/>
<path d="M49.1803 78.5276H50.6557V80H49.1803V78.5276Z" fill="#ED8A0A"/>
<path d="M59.0164 78.5276H60.4918V80H59.0164V78.5276Z" fill="#ED8A0A"/>
<path d="M68.8525 78.5276H70.3279V80H68.8525V78.5276Z" fill="#ED8A0A"/>
<path d="M78.6885 78.5276H80.1639V80H78.6885V78.5276Z" fill="#ED8A0A"/>
<path d="M88.5246 78.5276H90V80H88.5246V78.5276Z" fill="#ED8A0A"/>
</g>
</svg>
